<svg width="20" height="20" viewBox="0 0 20 20" fill="none" xmlns="http://www.w3.org/2000/svg">
<path d="M6.80512 2.16699C6.36358 2.16698 5.98758 2.16697 5.67889 2.19219C5.35459 2.21869 5.0391 2.27672 4.73749 2.43039C4.28276 2.66209 3.91306 3.03179 3.68137 3.48652C3.52769 3.78813 3.46966 4.10362 3.44317 4.42792C3.41795 4.73661 3.41796 5.11259 3.41797 5.55413V17.917C3.41797 18.1879 3.56406 18.4377 3.80015 18.5706C4.03624 18.7035 4.32563 18.6987 4.5572 18.5581L10.0013 15.2527L15.4454 18.5581C15.6769 18.6987 15.9663 18.7035 16.2024 18.5706C16.4385 18.4377 16.5846 18.1879 16.5846 17.917V5.55416C16.5846 5.1126 16.5846 4.73662 16.5594 4.42792C16.5329 4.10362 16.4749 3.78813 16.3212 3.48652C16.0895 3.03179 15.7198 2.66209 15.2651 2.43039C14.9635 2.27672 14.648 2.21869 14.3237 2.19219C14.015 2.16697 13.639 2.16698 13.1975 2.16699H6.80512Z" fill="white"/>
</svg>
