<svg width="22" height="19" viewBox="0 0 22 19" fill="currentColor" xmlns="http://www.w3.org/2000/svg">
<path fill-rule="evenodd" clip-rule="evenodd" d="M3.26667 9.24256e-07H13.5333C13.9248 -1.62437e-05 14.2713 -3.14359e-05 14.5585 0.0234288C14.8643 0.0484124 15.1811 0.104422 15.4896 0.261588C15.9412 0.491684 16.3083 0.858837 16.5384 1.31043C16.6554 1.54007 16.7164 1.77436 16.7502 2.00527H17.149C19.441 2.00527 21.299 3.86329 21.299 6.15527C21.299 8.44726 19.441 10.3053 17.149 10.3053H15.8391C14.4334 12.978 11.6299 14.801 8.40037 14.801C3.76108 14.801 1.02185e-06 11.0391 1.02185e-06 6.4V3.26667C-1.73367e-05 2.87517 -3.35835e-05 2.52867 0.0234277 2.24152C0.0484113 1.93573 0.104421 1.61888 0.261587 1.31043C0.491683 0.858837 0.858836 0.491684 1.31043 0.261588C1.61888 0.104422 1.93573 0.0484124 2.24152 0.0234288C2.52866 -3.14359e-05 2.87519 -1.62437e-05 3.26667 9.24256e-07ZM17.149 3.80527H16.8V6.4C16.8 7.127 16.7077 7.83246 16.534 8.50527H17.149C18.4469 8.50527 19.4991 7.45314 19.4991 6.15527C19.4991 4.85741 18.4469 3.80527 17.149 3.80527Z"/>
<path d="M2.15015 17.0043C1.65309 17.0043 1.25015 17.4072 1.25015 17.9043C1.25015 18.4014 1.65309 18.8043 2.15015 18.8043H15.1501C15.6472 18.8043 16.0501 18.4014 16.0501 17.9043C16.0501 17.4072 15.6472 17.0043 15.1501 17.0043H2.15015Z"/>
</svg>
